<svg xmlns="http://www.w3.org/2000/svg" width="50" height="50" viewBox="0 0 50 50">
  <defs>
    <style>
      .cls-1 {
        fill: #354052;
        fill-rule: evenodd;
      }
    </style>
  </defs>
  <path id="形狀_2" data-name="形狀 2" class="cls-1" d="M84,2001.98A25,25,0,1,1,108.707,2027,25.039,25.039,0,0,1,84,2001.98Zm25.014-20.43a20.45,20.45,0,1,0,20.436,20.42A20.458,20.458,0,0,0,109.014,1981.55Zm-2.272,13.6c0-2.29-.014-4.58.007-6.87a2.245,2.245,0,0,1,4.249-.95,3.366,3.366,0,0,1,.255,1.34q0.029,5.895,0,11.81a1.225,1.225,0,0,0,.405.97c1.905,1.89,3.806,3.78,5.683,5.69a2.252,2.252,0,0,1-1.035,3.85,2.077,2.077,0,0,1-2.066-.55q-3.461-3.42-6.888-6.88a2.283,2.283,0,0,1-.62-1.7c0.009-2.24,0-4.47,0-6.71h0Z" transform="translate(-84 -1977)"/>
</svg>
