<?xml version="1.0" encoding="utf-8"?>
<!-- Generator: Adobe Illustrator 24.1.3, SVG Export Plug-In . SVG Version: 6.00 Build 0)  -->
<svg version="1.1" id="圖層_1" xmlns="http://www.w3.org/2000/svg" xmlns:xlink="http://www.w3.org/1999/xlink" x="0px" y="0px"
	 viewBox="0 0 78 78" style="enable-background:new 0 0 78 78;" xml:space="preserve">
<style type="text/css">
	.st0{opacity:0.15;fill:#FF8C00;}
	.st1{fill:#FF8C00;}
	.st2{opacity:0.15;fill:#009B7E;}
	.st3{fill:#009B7E;}
	.st4{opacity:0.15;fill:#11A400;}
	.st5{fill:#11A400;}
	.st6{fill:#11CF00;}
	.st7{opacity:0.15;fill:#F03737;}
	.st8{fill:#F03737;}
	.st9{opacity:0.15;fill:#A531F7;}
	.st10{fill:#A531F7;}
	.st11{opacity:0.15;fill:#CF00C4;}
	.st12{fill:#CF00C4;}
	.st13{fill:#999999;}
</style>
<g>
	<g>
		<circle class="st0" cx="39" cy="39" r="39"/>
		<g>
			<path class="st1" d="M57.65,20.35c-4.98-4.98-11.61-7.73-18.65-7.73s-13.67,2.74-18.65,7.73S12.63,31.96,12.63,39
				c0,7.05,2.74,13.67,7.73,18.65c4.98,4.98,11.6,7.73,18.65,7.73s13.67-2.74,18.65-7.73c4.98-4.98,7.73-11.6,7.73-18.65
				C65.38,31.96,62.63,25.33,57.65,20.35z M39,60.57c-11.89,0-21.57-9.68-21.57-21.57S27.11,17.43,39,17.43S60.57,27.11,60.57,39
				S50.89,60.57,39,60.57z"/>
			<path class="st1" d="M40.6,36.6h-3.2c-1.32,0-2.39-1.07-2.39-2.39s1.07-2.39,2.39-2.39h6.39c1.32,0,2.4-1.08,2.4-2.4
				s-1.08-2.4-2.4-2.4H41.4v-2.39c0-1.32-1.08-2.4-2.4-2.4s-2.4,1.08-2.4,2.4v2.44c-3.59,0.4-6.39,3.45-6.39,7.15
				c0,3.97,3.23,7.2,7.2,7.2h3.2c1.32,0,2.39,1.07,2.39,2.39c0,1.32-1.07,2.39-2.39,2.39h-6.39c-1.32,0-2.4,1.08-2.4,2.4
				c0,1.32,1.08,2.4,2.4,2.4h2.39v2.39c0,1.32,1.08,2.4,2.4,2.4s2.4-1.08,2.4-2.4v-2.44c3.59-0.4,6.39-3.45,6.39-7.15
				C47.79,39.83,44.57,36.6,40.6,36.6z"/>
		</g>
	</g>
</g>
</svg>
