<?xml version="1.0" encoding="utf-8"?>
<!-- Generator: Adobe Illustrator 24.1.3, SVG Export Plug-In . SVG Version: 6.00 Build 0)  -->
<svg version="1.1" id="圖層_1" xmlns="http://www.w3.org/2000/svg" xmlns:xlink="http://www.w3.org/1999/xlink" x="0px" y="0px"
	 viewBox="0 0 78 78" style="enable-background:new 0 0 78 78;" xml:space="preserve">
<style type="text/css">
	.st0{opacity:0.15;fill:#FF8C00;}
	.st1{fill:#FF8C00;}
	.st2{opacity:0.15;fill:#009B7E;}
	.st3{fill:#009B7E;}
	.st4{opacity:0.15;fill:#11A400;}
	.st5{fill:#11A400;}
	.st6{fill:#11CF00;}
	.st7{opacity:0.15;fill:#F03737;}
	.st8{fill:#F03737;}
	.st9{opacity:0.15;fill:#A531F7;}
	.st10{fill:#A531F7;}
	.st11{opacity:0.15;fill:#CF00C4;}
	.st12{fill:#CF00C4;}
	.st13{fill:#999999;}
</style>
<g>
	<g>
		<circle class="st4" cx="39" cy="39" r="39"/>
		<g>
			<g>
				<g>
					<g>
						<path class="st5" d="M63.5,60.7h-49V21.45L39,13.3l24.5,8.15V60.7z M17.88,57.32h42.24V23.88L39,16.86l-21.12,7.02V57.32z"/>
					</g>
				</g>
			</g>
			<rect x="16.19" y="26.91" class="st5" width="45.62" height="3.38"/>
			<g>
				<g>
					<g>
						<path class="st6" d="M40.07,43.26h-2.13c-1.22,0-2.2-0.99-2.2-2.2c0-1.22,0.99-2.2,2.2-2.2h4.27c0.55,0,1-0.45,1-1
							s-0.45-1-1-1H40v-2.2c0-0.55-0.45-1-1-1c-0.55,0-1,0.45-1,1v2.2h-0.07c-2.31,0-4.2,1.88-4.2,4.2s1.88,4.2,4.2,4.2h2.13
							c1.22,0,2.2,0.99,2.2,2.2s-0.99,2.2-2.2,2.2H35.8c-0.55,0-1,0.45-1,1s0.45,1,1,1H38v2.2c0,0.55,0.45,1,1,1c0.55,0,1-0.45,1-1
							v-2.2h0.07c2.31,0,4.2-1.88,4.2-4.2C44.26,45.15,42.38,43.26,40.07,43.26z"/>
						<path class="st5" d="M39,55.7c-1.01,0-1.84-0.83-1.84-1.84V52.5H35.8c-1.01,0-1.84-0.83-1.84-1.84s0.83-1.84,1.84-1.84h4.27
							c0.75,0,1.36-0.61,1.36-1.36c0-0.75-0.61-1.36-1.36-1.36h-2.13c-2.78,0-5.04-2.26-5.04-5.04c0-2.52,1.85-4.61,4.27-4.98v-1.42
							c0-1.01,0.83-1.84,1.84-1.84s1.84,0.83,1.84,1.84v1.36h1.36c1.01,0,1.84,0.83,1.84,1.84c0,1.01-0.83,1.84-1.84,1.84h-4.27
							c-0.75,0-1.36,0.61-1.36,1.36c0,0.75,0.61,1.36,1.36,1.36h2.13c2.78,0,5.04,2.26,5.04,5.04c0,2.52-1.85,4.61-4.27,4.98v1.42
							C40.84,54.87,40.01,55.7,39,55.7z M35.8,50.51c-0.08,0-0.15,0.07-0.15,0.15c0,0.08,0.07,0.15,0.15,0.15h3.05v3.05
							c0,0.17,0.3,0.17,0.3,0v-3.05H40c1.92,0,3.42-1.5,3.42-3.35c0-1.85-1.5-3.35-3.35-3.35h-2.13c-1.68,0-3.05-1.37-3.05-3.05
							c0-1.68,1.37-3.05,3.05-3.05h4.27c0.08,0,0.15-0.07,0.15-0.15c0-0.08-0.07-0.15-0.15-0.15h-3.05v-3.05c0-0.16-0.3-0.17-0.3,0
							v3.05h-0.84c-1.92,0-3.42,1.5-3.42,3.35c0,1.85,1.5,3.35,3.35,3.35h2.13c1.68,0,3.05,1.37,3.05,3.05
							c0,1.68-1.37,3.05-3.05,3.05H35.8z"/>
					</g>
				</g>
			</g>
			<g>
				<rect x="51.25" y="29.44" class="st5" width="3.38" height="28.72"/>
				<rect x="23.37" y="30.29" class="st5" width="3.38" height="28.72"/>
			</g>
		</g>
	</g>
</g>
</svg>
