<?xml version="1.0" encoding="utf-8"?>
<!-- Generator: Adobe Illustrator 24.1.3, SVG Export Plug-In . SVG Version: 6.00 Build 0)  -->
<svg version="1.1" id="圖層_1" xmlns="http://www.w3.org/2000/svg" xmlns:xlink="http://www.w3.org/1999/xlink" x="0px" y="0px"
	 viewBox="0 0 78 78" style="enable-background:new 0 0 78 78;" xml:space="preserve">
<style type="text/css">
	.st0{opacity:0.15;fill:#FF8C00;}
	.st1{fill:#FF8C00;}
	.st2{opacity:0.15;fill:#009B7E;}
	.st3{fill:#009B7E;}
	.st4{opacity:0.15;fill:#11A400;}
	.st5{fill:#11A400;}
	.st6{fill:#11CF00;}
	.st7{opacity:0.15;fill:#F03737;}
	.st8{fill:#F03737;}
	.st9{opacity:0.15;fill:#A531F7;}
	.st10{fill:#A531F7;}
	.st11{opacity:0.15;fill:#CF00C4;}
	.st12{fill:#CF00C4;}
	.st13{fill:#999999;}
</style>
<g>
	<g>
		<circle class="st11" cx="39" cy="39" r="39"/>
		<path class="st12" d="M54.79,32.91c1.63-1.4,2.66-3.47,2.66-5.79c0-4.21-3.42-7.63-7.63-7.63c-4.01,0-7.35,3.17-7.61,7.13
			c-2-0.83-4.52-0.71-6.43,0.29c-0.11-4.11-3.49-7.42-7.62-7.42c-4.21,0-7.63,3.42-7.63,7.63c0,2.31,1.03,4.39,2.66,5.79
			c-4.1,1.02-7.14,4.73-7.14,9.13v6.59l0.16,1.08l1.21,0.38c3.2,1,6.38,1.6,9.46,1.78l0.32,0.02v3.3l0.15,1.08l1.21,0.38
			c3.91,1.22,7.76,1.84,11.44,1.84c6.22,0,9.84-1.75,10.23-1.95l0.15-0.08h1.02v-4.54l0.29-0.01c5.47-0.2,8.7-1.75,9.05-1.93
			l0.15-0.08h1.02v-7.87C61.93,37.64,58.89,33.93,54.79,32.91z M49.83,22.05c2.8,0,5.08,2.28,5.08,5.08s-2.28,5.08-5.08,5.08
			c-0.52,0-1.04-0.08-1.53-0.24c-0.43-2.23-1.66-4.2-3.49-5.57C45.16,23.95,47.29,22.05,49.83,22.05z M39.32,28.61
			c2.8,0,5.08,2.28,5.08,5.08c0,2.8-2.28,5.08-5.08,5.08c-2.8,0-5.08-2.28-5.08-5.08C34.24,30.89,36.52,28.61,39.32,28.61z
			 M23.09,27.13c0-2.8,2.28-5.08,5.08-5.08c2.72,0,4.94,2.14,5.07,4.83c-1.43,1.28-2.42,2.94-2.83,4.8
			c-0.7,0.34-1.46,0.53-2.24,0.53C25.37,32.21,23.09,29.93,23.09,27.13z M25.7,48.62v0.61c-2.32-0.23-4.69-0.71-7.08-1.43v-5.75
			c0-3.78,3.08-6.86,6.86-6.86h4.83c0.22,1.32,0.71,2.56,1.46,3.65C28.12,40.66,25.7,44.45,25.7,48.62z M48.87,54.38
			c-0.83,0.37-3.91,1.57-8.85,1.57c-3.29,0-6.74-0.54-10.26-1.59v-5.75c0-3.78,3.08-6.86,6.86-6.86h5.39c1.83,0,3.55,0.71,4.85,2.01
			c1.3,1.3,2.01,3.02,2.01,4.85V54.38z M59.38,47.82c-0.7,0.31-2.93,1.18-6.45,1.47v-0.68c0-4.16-2.42-7.96-6.07-9.78
			c0.75-1.09,1.25-2.34,1.46-3.65h4.19c3.78,0,6.86,3.08,6.86,6.86V47.82z"/>
	</g>
</g>
</svg>
