<?xml version="1.0" encoding="utf-8"?>
<!-- Generator: Adobe Illustrator 24.1.3, SVG Export Plug-In . SVG Version: 6.00 Build 0)  -->
<svg version="1.1" id="圖層_1" xmlns="http://www.w3.org/2000/svg" xmlns:xlink="http://www.w3.org/1999/xlink" x="0px" y="0px"
	 viewBox="0 0 78 78" style="enable-background:new 0 0 78 78;" xml:space="preserve">
<style type="text/css">
	.st0{opacity:0.15;fill:#FF8C00;}
	.st1{fill:#FF8C00;}
	.st2{opacity:0.15;fill:#009B7E;}
	.st3{fill:#009B7E;}
	.st4{opacity:0.15;fill:#11A400;}
	.st5{fill:#11A400;}
	.st6{fill:#11CF00;}
	.st7{opacity:0.15;fill:#F03737;}
	.st8{fill:#F03737;}
	.st9{opacity:0.15;fill:#A531F7;}
	.st10{fill:#A531F7;}
	.st11{opacity:0.15;fill:#CF00C4;}
	.st12{fill:#CF00C4;}
	.st13{fill:#999999;}
</style>
<g>
	<g>
		<circle class="st9" cx="39" cy="39" r="39"/>
		<g>
			<path class="st10" d="M38.72,38.93c3.15,0,5.88-1.13,8.11-3.36c2.23-2.23,3.36-4.96,3.36-8.11c0-3.15-1.13-5.88-3.36-8.11
				C44.59,17.13,41.87,16,38.72,16c-3.15,0-5.88,1.13-8.11,3.36c-2.23,2.23-3.36,4.96-3.36,8.11c0,3.15,1.13,5.88,3.36,8.11
				C32.84,37.8,35.57,38.93,38.72,38.93z M33.51,22.25c1.45-1.45,3.16-2.16,5.21-2.16c2.05,0,3.76,0.71,5.21,2.16
				c1.45,1.45,2.16,3.16,2.16,5.21c0,2.05-0.71,3.76-2.16,5.21c-1.45,1.45-3.16,2.16-5.21,2.16c-2.05,0-3.76-0.71-5.21-2.16
				c-1.45-1.45-2.16-3.16-2.16-5.21S32.05,23.71,33.51,22.25z"/>
			<path class="st10" d="M58.22,50.92c-0.06-0.89-0.19-1.86-0.37-2.89c-0.19-1.04-0.43-2.03-0.72-2.92
				c-0.31-0.95-0.72-1.89-1.22-2.78c-0.54-0.95-1.17-1.77-1.88-2.45c-0.76-0.73-1.69-1.31-2.76-1.74c-1.06-0.42-2.24-0.63-3.49-0.63
				c-0.7,0-1.29,0.3-2.15,0.86c-0.52,0.34-1.13,0.73-1.81,1.17c-0.53,0.34-1.26,0.66-2.18,0.95c-1.75,0.57-3.53,0.57-5.29,0
				c-0.91-0.3-1.65-0.62-2.17-0.95c-0.67-0.43-1.28-0.82-1.81-1.17c-0.86-0.56-1.45-0.86-2.15-0.86c-1.25,0-2.42,0.21-3.49,0.63
				c-1.07,0.42-1.99,1.01-2.76,1.74c-0.71,0.68-1.35,1.51-1.88,2.45c-0.51,0.89-0.92,1.83-1.22,2.78c-0.29,0.9-0.53,1.88-0.72,2.92
				c-0.18,1.03-0.31,2.01-0.37,2.89c-0.06,0.87-0.09,1.77-0.09,2.68c0,2.53,0.82,4.6,2.43,6.13c1.58,1.5,3.65,2.27,6.17,2.27h21.43
				c2.51,0,4.59-0.76,6.17-2.27c1.61-1.53,2.43-3.59,2.43-6.13C58.31,52.69,58.28,51.79,58.22,50.92z M53.06,56.77
				c-0.81,0.77-1.9,1.14-3.35,1.14H28.28c-1.44,0-2.54-0.37-3.35-1.14c-0.78-0.74-1.15-1.77-1.15-3.16c0-0.82,0.03-1.62,0.08-2.4
				c0.05-0.75,0.16-1.58,0.31-2.45c0.16-0.87,0.35-1.67,0.59-2.4c0.21-0.67,0.51-1.35,0.88-2c0.34-0.6,0.73-1.11,1.16-1.52
				c0.38-0.36,0.86-0.66,1.44-0.89c0.48-0.19,1.01-0.3,1.6-0.34c0.08,0.05,0.17,0.11,0.29,0.19c0.54,0.35,1.16,0.75,1.84,1.19
				c0.82,0.53,1.87,1,3.12,1.4c2.57,0.83,5.24,0.83,7.81,0c1.25-0.4,2.3-0.87,3.12-1.4c0.7-0.45,1.31-0.84,1.84-1.19
				c0.12-0.08,0.22-0.14,0.29-0.18c0.58,0.03,1.12,0.15,1.6,0.34c0.58,0.23,1.06,0.53,1.43,0.89c0.43,0.41,0.81,0.92,1.16,1.52
				c0.37,0.65,0.67,1.33,0.88,2c0.24,0.74,0.43,1.55,0.58,2.4c0.16,0.89,0.27,1.71,0.32,2.46c0.05,0.77,0.08,1.58,0.08,2.4
				C54.22,54.99,53.84,56.03,53.06,56.77z"/>
		</g>
	</g>
</g>
</svg>
