<?xml version="1.0" encoding="utf-8"?>
<!-- Generator: Adobe Illustrator 24.1.3, SVG Export Plug-In . SVG Version: 6.00 Build 0)  -->
<svg version="1.1" id="圖層_1" xmlns="http://www.w3.org/2000/svg" xmlns:xlink="http://www.w3.org/1999/xlink" x="0px" y="0px"
	 viewBox="0 0 78 78" style="enable-background:new 0 0 78 78;" xml:space="preserve">
<style type="text/css">
	.st0{opacity:0.15;fill:#FF8C00;}
	.st1{fill:#FF8C00;}
	.st2{opacity:0.15;fill:#009B7E;}
	.st3{fill:#009B7E;}
	.st4{opacity:0.15;fill:#11A400;}
	.st5{fill:#11A400;}
	.st6{fill:#11CF00;}
	.st7{opacity:0.15;fill:#F03737;}
	.st8{fill:#F03737;}
	.st9{opacity:0.15;fill:#A531F7;}
	.st10{fill:#A531F7;}
	.st11{opacity:0.15;fill:#CF00C4;}
	.st12{fill:#CF00C4;}
	.st13{fill:#999999;}
</style>
<g>
	<g>
		<circle class="st7" cx="39" cy="39" r="39"/>
		<g>
			<path class="st8" d="M35.24,45.16c-0.58,0.58-0.58,1.53,0,2.12c0.29,0.29,0.67,0.44,1.06,0.44c0.38,0,0.77-0.15,1.06-0.44l0,0
				c0.58-0.58,0.58-1.53,0-2.12C36.77,44.58,35.82,44.58,35.24,45.16z"/>
			<path class="st8" d="M43.1,37c6.21,0,11.25-5.05,11.25-11.25S49.31,14.49,43.1,14.49s-11.26,5.05-11.26,11.25S36.89,37,43.1,37z
				 M34.84,25.75c0-4.56,3.71-8.26,8.26-8.26c4.56,0,8.26,3.71,8.26,8.26s-3.71,8.26-8.26,8.26C38.54,34.01,34.84,30.3,34.84,25.75z
				"/>
			<path class="st8" d="M62.93,34.26c-1.85-1.56-4.63-1.33-6.18,0.47l-5.38,5.53c-0.82-0.78-1.9-1.22-3.04-1.22H37.55
				c-1.58-0.65-3.26-0.98-4.99-0.98c-4.92,0-9.01,2.25-11.29,6.2c-1-0.08-1.98,0.29-2.7,1l-4.64,4.66c-0.58,0.58-0.58,1.53,0,2.11
				l10.96,11.04c0.29,0.29,0.68,0.44,1.06,0.44c0.38,0,0.76-0.14,1.05-0.43l4.74-4.66c0.84-0.84,1.18-2.08,0.91-3.24l0.79-0.76
				c0.45-0.44,1.04-0.67,1.67-0.67h12.97c2.44,0,4.74-0.94,6.45-2.6c0.06-0.05,0.06-0.05,1.77-2.09l7.15-8.55
				C65.03,38.63,64.8,35.83,62.93,34.26z M29.75,55.98c0,0.12-0.05,0.24-0.12,0.31l-3.66,3.61l-8.86-8.93l3.59-3.6
				c0.15-0.15,0.38-0.18,0.58-0.06c0.07,0.06,0.45,0.44,1.57,1.56c1.17,1.18,3.21,3.21,6.77,6.78
				C29.71,55.74,29.75,55.86,29.75,55.98z M48.33,44.89h-7.96c-0.83,0-1.5,0.67-1.5,1.5s0.67,1.5,1.5,1.5h7.96
				c2.44,0,4.42-1.98,4.42-4.42c0-0.11,0-0.22-0.01-0.32l4.17-4.28c2.05-2.1,2.05-2.1,2.08-2.14c0.51-0.6,1.42-0.68,2.02-0.17
				c0.29,0.25,0.47,0.59,0.5,0.97c0.03,0.38-0.09,0.75-0.34,1.05l-8.71,10.42c-1.18,1.13-2.73,1.76-4.37,1.76H35.11
				c-1.41,0-2.74,0.54-3.75,1.51L30.9,52.7L23.9,45.7c1.75-3,4.81-4.65,8.66-4.65c1.42,0,2.8,0.29,4.09,0.85
				c0.19,0.08,0.39,0.13,0.6,0.13h11.08c0.79,0,1.43,0.64,1.43,1.43S49.12,44.89,48.33,44.89z"/>
			<path class="st8" d="M42.04,27.6c-0.53-0.63-1.48-0.71-2.11-0.18c-0.31,0.26-0.49,0.62-0.53,1.02c-0.03,0.4,0.09,0.78,0.35,1.09
				c0.48,0.57,1.05,1.02,1.66,1.29v0.78c0,0.83,0.67,1.5,1.5,1.5s1.5-0.67,1.5-1.5v-0.8c1.18-0.57,1.95-1.77,1.95-3.1
				c0-1.9-1.55-3.45-3.45-3.45c-0.25,0-0.46-0.2-0.46-0.46c0-0.46,0.61-0.61,1.15-0.09c0.59,0.57,1.54,0.56,2.12-0.03
				c0.28-0.29,0.43-0.67,0.42-1.07c-0.01-0.4-0.17-0.77-0.46-1.05c-0.39-0.38-0.82-0.68-1.28-0.88v-0.78c0-0.83-0.67-1.5-1.5-1.5
				s-1.5,0.67-1.5,1.5v0.8c-1.18,0.57-1.95,1.77-1.95,3.1c0,1.9,1.55,3.45,3.45,3.45c0.25,0,0.46,0.2,0.46,0.46
				C43.36,28.21,42.62,28.29,42.04,27.6z"/>
		</g>
	</g>
</g>
</svg>
