<?xml version="1.0" encoding="utf-8"?>
<!-- Generator: Adobe Illustrator 24.1.3, SVG Export Plug-In . SVG Version: 6.00 Build 0)  -->
<svg version="1.1" id="圖層_1" xmlns="http://www.w3.org/2000/svg" xmlns:xlink="http://www.w3.org/1999/xlink" x="0px" y="0px"
	 viewBox="0 0 78 78" style="enable-background:new 0 0 78 78;" xml:space="preserve">
<style type="text/css">
	.st0{opacity:0.15;fill:#FF8C00;}
	.st1{fill:#FF8C00;}
	.st2{opacity:0.15;fill:#009B7E;}
	.st3{fill:#009B7E;}
	.st4{opacity:0.15;fill:#11A400;}
	.st5{fill:#11A400;}
	.st6{fill:#11CF00;}
	.st7{opacity:0.15;fill:#F03737;}
	.st8{fill:#F03737;}
	.st9{opacity:0.15;fill:#A531F7;}
	.st10{fill:#A531F7;}
	.st11{opacity:0.15;fill:#CF00C4;}
	.st12{fill:#CF00C4;}
	.st13{fill:#999999;}
</style>
<g>
	<g>
		<circle class="st2" cx="39" cy="39" r="39"/>
		<g>
			<g>
				<path class="st3" d="M29.33,25.81v2.82c0.49-0.28,0.79-0.78,0.87-1.26C30.25,27.02,30.28,26.21,29.33,25.81z"/>
				<path class="st3" d="M27.11,22.08c-0.07,0.37,0.02,0.72,0.23,0.88c0.07,0.06,0.15,0.11,0.24,0.17V21.3
					C27.31,21.5,27.16,21.81,27.11,22.08z"/>
				<path class="st3" d="M28.51,14.03c-6.04,0-10.96,4.92-10.96,10.96s4.92,10.96,10.96,10.96s10.96-4.92,10.96-10.96
					S34.56,14.03,28.51,14.03z M31.93,27.66c-0.21,1.23-1.14,2.47-2.6,2.84v0.63c0,0.48-0.39,0.88-0.88,0.88s-0.88-0.39-0.88-0.88
					v-0.54c-0.71-0.06-1.3-0.25-2.13-0.8c-0.41-0.27-0.52-0.81-0.25-1.21c0.27-0.41,0.81-0.52,1.21-0.25
					c0.47,0.31,0.77,0.44,1.17,0.5v-3.7c-0.56-0.26-0.98-0.5-1.32-0.77c-0.73-0.57-1.06-1.56-0.87-2.58c0.21-1.12,0.99-2,2.03-2.32
					c0.06-0.02,0.11-0.03,0.16-0.05v-0.55c0-0.48,0.39-0.88,0.88-0.88s0.88,0.39,0.88,0.88v0.45c0.85,0.15,1.45,0.57,1.74,0.9
					c0.32,0.37,0.28,0.92-0.09,1.24c-0.36,0.32-0.91,0.28-1.23-0.08c-0.02-0.02-0.16-0.15-0.43-0.25v2.83
					c0.16,0.06,0.31,0.11,0.46,0.17C31.33,24.65,32.19,26.08,31.93,27.66z"/>
			</g>
			<g>
				<path class="st3" d="M52.37,61.97H47.1c-1.24,0-2.33-0.79-2.72-1.96l-1.1-3.3H33.21l-1.1,3.3c-0.39,1.17-1.48,1.96-2.72,1.96
					h-5.26c-1.58,0-2.86-1.29-2.86-2.86v-6.08C17.95,50.17,16,45.94,16,41.57c0-2.18,0.46-4.28,1.35-6.26l0.94-2.07l1.58,1.63
					c2.29,2.36,5.36,3.66,8.64,3.66c6.16,0,11.3-4.61,11.97-10.72l0.15-1.38h4.71c0.19,0,0.37,0,0.56,0.01
					c1.83-2.74,4.89-4.4,8.21-4.4h3.51c1.22,0,2.3,0.77,2.7,1.92c0.4,1.14,0.03,2.42-0.91,3.18l-0.28,0.22
					c-1.27,1.02-2.2,2.4-2.67,3.95c0.44,0.48,0.85,0.98,1.23,1.51l3.92,0.67C63,33.72,64,34.91,64,36.31v7.89
					c0,1.17-0.7,2.21-1.79,2.65l-3.25,1.31c-0.9,1.86-2.18,3.52-3.74,4.87v6.08C55.23,60.69,53.94,61.97,52.37,61.97z M47.27,58.88
					h4.86v-7.33l0.6-0.47c1.6-1.24,2.86-2.87,3.66-4.73l0.25-0.58l4.26-1.72V36.5l-5.05-0.86l-0.37-0.57
					c-0.51-0.79-1.11-1.52-1.8-2.18l-0.61-0.59l0.17-0.83c0.49-2.47,1.81-4.71,3.73-6.33h-2.85c-2.48,0-4.84,1.43-6,3.63l-0.49,0.93
					l-1.04-0.11c-0.42-0.04-0.83-0.07-1.24-0.07h-2c-1.42,6.99-7.57,12.1-14.84,12.1c-3.31,0-6.45-1.05-9.05-3.01
					c-0.24,0.96-0.36,1.94-0.36,2.95c0,3.68,1.74,7.24,4.66,9.51l0.6,0.46v7.33h4.86l1.75-5.26h14.54L47.27,58.88z M51.05,39.61
					c-1.58,0-2.86-1.29-2.86-2.86c0-1.58,1.29-2.86,2.86-2.86s2.86,1.29,2.86,2.86C53.91,38.33,52.63,39.61,51.05,39.61z
					 M51.05,36.51c-0.13,0-0.23,0.1-0.23,0.23c0,0.26,0.47,0.26,0.47,0C51.28,36.62,51.18,36.51,51.05,36.51z"/>
			</g>
		</g>
	</g>
</g>
</svg>
