<svg xmlns="http://www.w3.org/2000/svg" width="64.719" height="64.75" viewBox="0 0 64.719 64.75">
  <defs>
    <style>
      .cls-1 {
        fill: #3a537d;
        fill-rule: evenodd;
      }
    </style>
  </defs>
  <path id="形狀_2" data-name="形狀 2" class="cls-1" d="M104.689,742.926H93.058a2.241,2.241,0,0,1-1.509-2.408c0.03-4.818.016-9.636,0.011-14.454a3.2,3.2,0,0,0-3.468-3.452c-1.789-.006-3.578,0-5.367,0-2.338,0-3.6,1.252-3.6,3.574,0,4.776-.018,9.552.011,14.327a2.244,2.244,0,0,1-1.5,2.414H66a0.509,0.509,0,0,0-.161-0.089,7.073,7.073,0,0,1-5.942-7.278c0.084-6.085.022-12.171,0.022-18.257v-0.685a18.955,18.955,0,0,1-2.52-.311,5.935,5.935,0,0,1-2.522-10.1q13.037-13.056,26.1-26.085a7.246,7.246,0,0,1,1.219-1,5.953,5.953,0,0,1,7.6,1.07q12.516,12.5,25.036,25a8.639,8.639,0,0,1,2.882,4.61v1.516a1.839,1.839,0,0,0-.109.289,5.9,5.9,0,0,1-5.883,4.9c-0.306,0-.611,0-0.952,0v0.852c0,6.251.016,12.5-.015,18.753a6.891,6.891,0,0,1-4.86,6.469C105.5,742.719,105.09,742.817,104.689,742.926Z" transform="translate(-53 -678.188)"/>
</svg>
