<svg xmlns="http://www.w3.org/2000/svg" width="65.875" height="65.87" viewBox="0 0 65.875 65.87">
  <defs>
    <style>
      .cls-1 {
        fill: #3a537d;
        fill-rule: evenodd;
      }
    </style>
  </defs>
  <path id="形狀_5_拷貝" data-name="形狀 5 拷貝" class="cls-1" d="M87.741,2165H83.882c-0.208-.04-0.415-0.09-0.625-0.12-1.4-.19-2.815-0.3-4.191-0.6a33.034,33.034,0,0,1-25.472-38.93,31.737,31.737,0,0,1,10.744-18.21,32.085,32.085,0,0,1,24.751-7.87,31.507,31.507,0,0,1,17.071,6.94,32.486,32.486,0,0,1,12.073,20.22c0.218,1.22.339,2.46,0.505,3.68v3.87c-0.053.46-.107,0.92-0.158,1.39a33.125,33.125,0,0,1-27.164,29.12C90.2,2164.71,88.967,2164.83,87.741,2165Zm-9.449-26.41h14.99a25.562,25.562,0,0,0,.369-13.09H78.293A31.488,31.488,0,0,0,78.292,2138.59Zm-6.65-13.07a2.645,2.645,0,0,0-.342-0.05q-5.208,0-10.417-.01a0.522,0.522,0,0,0-.574.52,22.449,22.449,0,0,0-.03,12.06,0.671,0.671,0,0,0,.785.6c3.322-.02,6.644-0.01,9.967-0.02,0.187,0,.374-0.02.663-0.03A65.915,65.915,0,0,1,71.642,2125.52Zm39.875-.02H100.285c0.236,4.38.613,8.71,0.017,13.09h11.215A22.782,22.782,0,0,0,111.517,2125.5Zm-31.937-6.67H92.037a43.07,43.07,0,0,0-6.227-13.1A47.249,47.249,0,0,0,79.58,2118.83Zm0.008,26.44a43.051,43.051,0,0,0,6.225,13.09,47.365,47.365,0,0,0,6.23-13.09H79.587Zm28.935-26.44c-3.234-5.75-8.09-9.37-14.117-11.81,0.144,0.32.224,0.52,0.317,0.71a50.956,50.956,0,0,1,4.139,10.69,0.549,0.549,0,0,0,.693.45h8.359C108.077,2118.87,108.24,2118.85,108.522,2118.83Zm-31.3,38.24c-0.133-.29-0.2-0.44-0.273-0.59a52.218,52.218,0,0,1-4.19-10.82,0.549,0.549,0,0,0-.7-0.44H63.7c-0.162,0-.325.03-0.6,0.05C66.327,2151,71.183,2154.62,77.223,2157.07Zm31.289-11.79c-0.194-.03-0.273-0.06-0.352-0.06-2.915,0-5.829.01-8.744-.01a0.522,0.522,0,0,0-.568.53,46.762,46.762,0,0,1-4.111,10.64c-0.1.18-.177,0.39-0.311,0.68C100.439,2154.62,105.286,2151.01,108.512,2145.28Zm-31.26-38.27a27.868,27.868,0,0,0-14.114,11.82h9.507A54.553,54.553,0,0,1,77.252,2107.01Z" transform="translate(-52.875 -2099.13)"/>
</svg>
