<svg xmlns="http://www.w3.org/2000/svg" width="65.313" height="46.66" viewBox="0 0 65.313 46.66">
  <defs>
    <style>
      .cls-1 {
        fill: #3a537d;
        fill-rule: evenodd;
      }
    </style>
  </defs>
  <path id="形狀_3" data-name="形狀 3" class="cls-1" d="M85.656,1074.35q12.608,0,25.216,0a7.007,7.007,0,0,1,7.444,7.43q0,15.885,0,31.77a7.021,7.021,0,0,1-7.437,7.45H60.447A7.024,7.024,0,0,1,53,1113.56q0-15.885,0-31.77a7.014,7.014,0,0,1,7.437-7.44Q73.047,1074.335,85.656,1074.35Zm-12.663,23.31c-0.31.06-.515,0.12-0.725,0.15a11.669,11.669,0,0,0-9.934,11.32,2.337,2.337,0,0,0,2.477,2.53q9.183,0.015,18.366,0a2.33,2.33,0,0,0,2.479-2.53,11.671,11.671,0,0,0-9.932-11.32c-0.205-.03-0.407-0.09-0.61-0.14a7.178,7.178,0,0,0,5.863-7.5,7,7,0,0,0-13.912-.43C66.476,1093.33,68.785,1096.46,72.993,1097.66Zm25.53-6.99q-4.007,0-8.014.01a2.338,2.338,0,1,0,.03,4.66h15.809a2.345,2.345,0,1,0-.03-4.67h-7.8ZM96.19,1100c-1.87,0-3.741,0-5.611.01a2.341,2.341,0,1,0-.033,4.66h11.223a2.341,2.341,0,1,0-.04-4.66C99.882,1100,98.036,1100,96.19,1100Z" transform="translate(-53 -1074.34)"/>
</svg>
