<svg xmlns="http://www.w3.org/2000/svg" width="50.25" height="66" viewBox="0 0 50.25 66">
  <defs>
    <style>
      .cls-1 {
        fill: #3a537d;
        fill-rule: evenodd;
      }
    </style>
  </defs>
  <path id="形狀_4" data-name="形狀 4" class="cls-1" d="M107.715,1518H64.534c-2.761-.97-3.533-2.06-3.533-4.98q0-28.29,0-56.59a4.172,4.172,0,0,1,4.49-4.44h24.82v0.77q0,7.68,0,15.35c0,2.82,1.722,4.51,4.609,4.51h16.327v18.29q0,11.385,0,22.76a4.118,4.118,0,0,1-3.3,4.23A2.127,2.127,0,0,0,107.715,1518Zm-4.885-8.28v-28.8h-8.3v28.8h8.3Zm-12.563,0v-20.55h-8.3v20.55h8.3Zm-12.563,0v-12.3H69.41v12.3H77.7Zm16.842-57.48c5.471,5.39,10.977,10.81,16.461,16.21H94.546v-16.21Z" transform="translate(-61 -1452)"/>
</svg>
