<svg xmlns="http://www.w3.org/2000/svg" width="55" height="66" viewBox="0 0 55 66">
  <defs>
    <style>
      .cls-1 {
        fill: #3a537d;
        fill-rule: evenodd;
      }
    </style>
  </defs>
  <path id="形狀_6" data-name="形狀 6" class="cls-1" d="M85.437,2015a25.094,25.094,0,0,1-3.868-1.32,9.943,9.943,0,0,1-5.16-6.91H96.575a8.614,8.614,0,0,1-1.332,3.37,10.123,10.123,0,0,1-7.318,4.75,1.69,1.69,0,0,0-.3.11H85.437Zm-1.675-60.32c0-.95-0.006-1.88,0-2.8a2.753,2.753,0,1,1,5.5-.07c0.025,0.79.021,1.59,0,2.38a0.521,0.521,0,0,0,.514.63c7.992,1.66,13.17,6.41,15.363,14.27a21.736,21.736,0,0,1,.6,4.97c0.1,2.64-.026,5.28.052,7.92a17.887,17.887,0,0,0,6.023,13.08,5.72,5.72,0,0,1,2.105,3.29,4.773,4.773,0,0,1-4.254,5.61,6.746,6.746,0,0,1-.9.05H64.241a4.9,4.9,0,0,1-4.847-2.96,4.749,4.749,0,0,1,1.349-5.55,18.958,18.958,0,0,0,5.058-6.9,17.721,17.721,0,0,0,1.447-6.75c0.033-2.64.009-5.29,0.014-7.93a19.217,19.217,0,0,1,16.178-19.14C83.523,1954.76,83.6,1954.73,83.761,1954.68Z" transform="translate(-59 -1949)"/>
</svg>
