<svg xmlns="http://www.w3.org/2000/svg" width="59.157" height="66.16" viewBox="0 0 59.157 66.16">
  <defs>
    <style>
      .cls-1 {
        fill: #3a537d;
        fill-rule: evenodd;
      }
    </style>
  </defs>
  <path id="形狀_7" data-name="形狀 7" class="cls-1" d="M96.464,2249.27c0.411,0.11.825,0.21,1.232,0.33a7.215,7.215,0,0,1,5.069,6.91c0.041,2.99.021,5.98,0,8.98a2.376,2.376,0,1,1-4.744-.03c-0.01-2.88,0-5.77,0-8.66a2.481,2.481,0,0,0-2.787-2.78H68.1c-0.183,0-.366.02-0.7,0.04,0.3,0.18.474,0.29,0.651,0.4,4.376,2.53,8.742,5.08,13.134,7.58a7.318,7.318,0,0,1,3.956,6.88c-0.031,10.1-.012,20.2-0.012,30.3v0.91c0.263,0.02.489,0.04,0.715,0.04h9.368a2.531,2.531,0,0,0,2.814-2.84c0-2.55-.011-5.09.007-7.63a2.338,2.338,0,0,1,1.935-2.33,2.306,2.306,0,0,1,2.607,1.43,3.084,3.084,0,0,1,.2,1.06c0.016,2.57.031,5.13,0,7.69a7.129,7.129,0,0,1-7.068,7.31c-3.249.1-6.5,0.03-9.755,0.04H85.123c0,1.09-.02,2.1,0,3.1a7.224,7.224,0,0,1-7.478,7.43,7.145,7.145,0,0,1-3.31-.97c-4.9-2.83-9.809-5.65-14.7-8.5a6.842,6.842,0,0,1-3.6-6.23q-0.031-21.585,0-43.16a7.174,7.174,0,0,1,6.078-7.2,1.05,1.05,0,0,0,.229-0.1H96.464Zm10.638,25.45c-0.907-.91-1.683-1.68-2.453-2.45a2.377,2.377,0,1,1,3.328-3.37q3.183,3.165,6.349,6.35a2.369,2.369,0,0,1,.016,3.64q-3.166,3.18-6.348,6.35a2.379,2.379,0,1,1-3.323-3.37c0.727-.74,1.456-1.47,2.181-2.21a0.685,0.685,0,0,0,.062-0.21h-0.759c-5.425,0-10.851.01-16.277,0a2.361,2.361,0,0,1-2.622-2.45,2.33,2.33,0,0,1,2.207-2.27c0.236-.02.474-0.01,0.71-0.01H107.1Z" transform="translate(-56.031 -2249.28)"/>
</svg>
