<svg xmlns="http://www.w3.org/2000/svg" width="55.094" height="55.125" viewBox="0 0 55.094 55.125">
  <defs>
    <style>
      .cls-1 {
        fill: #eaa718;
        fill-rule: evenodd;
      }
    </style>
  </defs>
  <path id="形狀_3_拷貝" data-name="形狀 3 拷貝" class="cls-1" d="M583.824,537.964H580.6a2.908,2.908,0,0,0-.416-0.088,25.553,25.553,0,0,1-10.862-3.129c-9.061-5.07-13.982-12.824-14.619-23.189a25.264,25.264,0,0,1,3.2-14.08c5.056-9.042,12.814-13.942,23.157-14.58a25.58,25.58,0,0,1,14.084,3.188,27.122,27.122,0,0,1,14.2,19.526c0.2,1.05.292,2.122,0.434,3.183v3.229a3.591,3.591,0,0,0-.092.464,25.944,25.944,0,0,1-3.141,10.855A27.165,27.165,0,0,1,587.01,537.53C585.959,537.731,584.887,537.822,583.824,537.964Zm21.635-27.529a23.25,23.25,0,1,0-23.3,23.223A23.262,23.262,0,0,0,605.459,510.435Zm-25.4,3.98c0-.862-0.01-1.722,0-2.583a2.076,2.076,0,0,1,1.983-2.194,4.585,4.585,0,0,0,3.553-1.72,4.077,4.077,0,0,0,.454-4.5,4.033,4.033,0,0,0-4-2.389A4.224,4.224,0,0,0,577.926,505c-0.025.231-.022,0.468-0.067,0.695a2.146,2.146,0,0,1-4.252-.462,8.282,8.282,0,0,1,3.88-7.105,8.139,8.139,0,0,1,8.958-.293,8.251,8.251,0,0,1,4.346,8.064,8.509,8.509,0,0,1-5.929,7.569,0.6,0.6,0,0,0-.51.706c0.033,0.931.016,1.864,0.009,2.8a2.156,2.156,0,1,1-4.3.024C580.05,516.136,580.057,515.275,580.057,514.415Zm2.138,11.857a2.677,2.677,0,1,1,2.7-2.636A2.689,2.689,0,0,1,582.2,526.272Z" transform="translate(-554.656 -482.844)"/>
</svg>
