<svg xmlns="http://www.w3.org/2000/svg" width="44.844" height="44.844" viewBox="0 0 44.844 44.844">
  <defs>
    <style>
      .cls-1 {
        fill: #3a537d;
        fill-rule: evenodd;
      }
    </style>
  </defs>
  <path id="形狀_3" data-name="形狀 3" class="cls-1" d="M683.391,536.7h-2.628a2.335,2.335,0,0,0-.338-0.071,20.782,20.782,0,0,1-8.839-2.547c-7.373-4.125-11.377-10.435-11.9-18.869a20.567,20.567,0,0,1,2.6-11.458,21.974,21.974,0,0,1,18.845-11.864,20.821,20.821,0,0,1,11.46,2.594,22.07,22.07,0,0,1,11.551,15.89c0.163,0.854.237,1.726,0.353,2.589v2.628a3.1,3.1,0,0,0-.074.377,21.128,21.128,0,0,1-2.557,8.834,22.1,22.1,0,0,1-15.885,11.544C685.129,536.508,684.256,536.582,683.391,536.7ZM701,514.3a18.919,18.919,0,1,0-18.962,18.9A18.929,18.929,0,0,0,701,514.3Zm-20.67,3.238c0-.7-0.009-1.4,0-2.1a1.69,1.69,0,0,1,1.614-1.786,3.726,3.726,0,0,0,2.891-1.4,3.314,3.314,0,0,0,.369-3.663,3.279,3.279,0,0,0-3.253-1.944,3.437,3.437,0,0,0-3.358,3.235c-0.019.188-.017,0.381-0.054,0.565a1.747,1.747,0,0,1-3.46-.375,6.738,6.738,0,0,1,3.157-5.782,6.622,6.622,0,0,1,7.29-.238,6.716,6.716,0,0,1,3.537,6.562,6.928,6.928,0,0,1-4.825,6.159,0.486,0.486,0,0,0-.416.574c0.028,0.757.014,1.517,0.008,2.276a1.754,1.754,0,1,1-3.5.02C680.32,518.935,680.326,518.235,680.326,517.534Zm1.74,9.649a2.179,2.179,0,1,1,2.2-2.145A2.188,2.188,0,0,1,682.066,527.183Z" transform="translate(-659.656 -491.844)"/>
</svg>
