<svg xmlns="http://www.w3.org/2000/svg" width="70" height="70.843" viewBox="0 0 70 70.843">
  <defs>
    <style>
      .cls-1 {
        fill: #fff;
        fill-rule: evenodd;
      }
    </style>
  </defs>
  <path id="形狀_1" data-name="形狀 1" class="cls-1" d="M1077.2,96.263c-0.68-1.182-1.39-2.342-2.01-3.548a34.7,34.7,0,0,1-3.18-24.227,34.369,34.369,0,0,1,15.12-21.843,33.955,33.955,0,0,1,20.37-5.674,35.1,35.1,0,0,1,22.79,9.179c0.81,0.721,1.55,1.514,2.32,2.273l0.31,0.034a2.143,2.143,0,0,1-.13-0.643,3.676,3.676,0,0,1,3.52-3.332,3.628,3.628,0,0,1,3.76,3.07c0.2,1.3.25,2.617,0.35,3.928q0.36,4.653.69,9.307a4.509,4.509,0,0,1-2.5,4.768,4.764,4.764,0,0,1-3.75.088q-5.97-2-11.94-4.01a3.786,3.786,0,0,1-2.77-4.23,3.7,3.7,0,0,1,4.06-3.06,1.7,1.7,0,0,0,.35-0.123c-1.3-1.041-2.44-2.1-3.72-2.953a25.182,25.182,0,0,0-19.23-3.979,25.4,25.4,0,0,0-20.23,20.855,24.513,24.513,0,0,0,3,16.757c4.78,8.163,12,12.492,21.4,12.958a24.029,24.029,0,0,0,15.63-4.735c1.41-1.017,2.85-1.859,4.68-1.5a4.959,4.959,0,0,1,1.99,8.928,35.334,35.334,0,0,1-43.11-.166c-1.62-1.237-3.01-2.762-4.52-4.151-0.14-.133-0.3-0.249-0.46-0.373Z" transform="translate(-1071.09 -40.969)"/>
</svg>
