<svg xmlns="http://www.w3.org/2000/svg" width="42" height="39" viewBox="0 0 42 39">
  <defs>
    <style>
      .cls-1 {
        fill: #29cc72;
        fill-rule: evenodd;
      }
    </style>
  </defs>
  <path id="形狀_1" data-name="形狀 1" class="cls-1" d="M522.387,491.423c-0.1-.741-0.223-1.479-0.293-2.222a19.293,19.293,0,0,1,15.718-20.834,19.02,19.02,0,0,1,11.633,1.415,19.59,19.59,0,0,1,9.785,9.453c0.264,0.535.48,1.093,0.718,1.641l0.148,0.081a1.244,1.244,0,0,1,.071-0.352,2.041,2.041,0,0,1,3.791,1.4c-0.17.7-.418,1.378-0.64,2.063q-0.787,2.433-1.586,4.861a2.463,2.463,0,0,1-2.273,1.892,2.682,2.682,0,0,1-1.946-.747q-2.646-2.271-5.289-4.546a2.067,2.067,0,0,1-.538-2.726,2.04,2.04,0,0,1,2.716-.7,1.021,1.021,0,0,0,.208.012c-0.451-.8-0.817-1.579-1.3-2.281a14.1,14.1,0,0,0-9.04-6.067,13.711,13.711,0,0,0-8.473.894,13.539,13.539,0,0,0-6.246,5.415A13.284,13.284,0,0,0,527.6,489.2a13.846,13.846,0,0,0,8.285,11.075,13.463,13.463,0,0,0,9.007.893,3.261,3.261,0,0,1,2.709.226,2.705,2.705,0,0,1-.838,4.944,19.781,19.781,0,0,1-22.081-9.163c-0.573-.967-0.973-2.035-1.455-3.055-0.047-.1-0.105-0.191-0.158-0.286Q522.73,492.631,522.387,491.423Z" transform="translate(-522 -468)"/>
</svg>
