<svg xmlns="http://www.w3.org/2000/svg" width="40" height="41" viewBox="0 0 40 41">
  <defs>
    <style>
      .cls-1 {
        fill: #354052;
        fill-rule: evenodd;
      }
    </style>
  </defs>
  <path id="形狀_4" data-name="形狀 4" class="cls-1" d="M789.985,271.063a9.329,9.329,0,0,1,.562-1.516,7.778,7.778,0,0,1,1.143-1.508c2.564-2.656,5.15-5.289,7.728-7.93,0.643-.658.669-0.753,0.229-1.547a16.461,16.461,0,0,1-1.971-6.023,16,16,0,0,1,.948-7.933,16.2,16.2,0,0,1,8.822-9.289,15.13,15.13,0,0,1,8.791-1.1,15.862,15.862,0,0,1,12.461,9.924,16.055,16.055,0,0,1,1.088,9,16.288,16.288,0,0,1-7.765,11.8,14.99,14.99,0,0,1-9.5,2.225,15.668,15.668,0,0,1-6.5-2.077c-0.768-.442-0.874-0.419-1.486.208-2.348,2.405-4.706,4.8-7.039,7.22a7.182,7.182,0,0,1-3.682,2.47h-0.938a3.842,3.842,0,0,1-1.961-1.15,4.015,4.015,0,0,1-.93-1.812v-0.961Zm35.778-20.449A11.994,11.994,0,1,0,813.8,262.9,12.176,12.176,0,0,0,825.763,250.614Zm-11.252-10.028a12.268,12.268,0,0,1,4,.885,1.732,1.732,0,0,1,1,2.219,1.628,1.628,0,0,1-2.139,1,7.279,7.279,0,0,0-4.282-.448,7.073,7.073,0,0,0-5.06,4,1.942,1.942,0,0,1-1.57,1.37,1.687,1.687,0,0,1-1.646-2.431,10.408,10.408,0,0,1,7.232-6.2C812.853,240.77,813.69,240.712,814.511,240.586Z" transform="translate(-790 -234)"/>
</svg>
