<svg id="群組_3_拷貝" data-name="群組 3 拷貝" xmlns="http://www.w3.org/2000/svg" width="150.063" height="150.063" viewBox="0 0 150.063 150.063">
  <defs>
    <style>
      .cls-1 {
        fill: #cce0ef;
      }

      .cls-2 {
        fill: #8dacc4;
        fill-rule: evenodd;
      }
    </style>
  </defs>
  <circle id="橢圓_1" data-name="橢圓 1" class="cls-1" cx="75.031" cy="75.031" r="75.031"/>
  <path id="形狀_1" data-name="形狀 1" class="cls-2" d="M128.515,250.332c1.162,0.233,2.332.433,3.485,0.7,7.918,1.856,14.68,9.411,15.747,17.494a20.91,20.91,0,0,1-3.077,14.848c-3.991,5.976-9.513,9.455-16.817,9.949a21.532,21.532,0,0,1-5.828-42.549c0.821-.167,1.65-0.3,2.475-0.445h4.015Zm-1.5,89.388q-10.6,0-21.206,0a16.692,16.692,0,0,1-10.055-2.862,13.23,13.23,0,0,1-5.779-9.931,46.553,46.553,0,0,1,3.006-21.563c1.655-4.121,4.131-7.671,8.2-9.849a16.357,16.357,0,0,1,8.126-1.966,6.212,6.212,0,0,1,2.675.906c1.35,0.735,2.6,1.652,3.912,2.458q11.184,6.865,22.355-.037c1.038-.643,2.095-1.266,3.071-1.994a7.461,7.461,0,0,1,5.876-1.213c5.8,0.85,9.9,4.016,12.665,9.082a37.368,37.368,0,0,1,4.076,14.5,70.36,70.36,0,0,1,.344,7.749c-0.095,7.967-5.435,13.74-13.364,14.562a28.4,28.4,0,0,1-2.871.154Q137.529,339.732,127.015,339.72Z" transform="translate(-52 -220)"/>
</svg>
